<svg xmlns="http://www.w3.org/2000/svg" xmlns:xlink="http://www.w3.org/1999/xlink" width="500" zoomAndPan="magnify" viewBox="0 0 375 374.999991" height="500" preserveAspectRatio="xMidYMid meet" version="1.0"><defs><g/></defs><g fill="#000000" fill-opacity="1"><g transform="translate(143.561465, 259.888514)"><g><path d="M 60.984375 -171.265625 C 67.960938 -171.265625 73.476562 -170.507812 77.53125 -169 C 81.582031 -167.488281 85.753906 -165.304688 90.046875 -162.453125 C 93.535156 -160.234375 96.234375 -159.125 98.140625 -159.125 C 99.566406 -159.125 100.675781 -159.957031 101.46875 -161.625 C 102.269531 -163.289062 102.90625 -165.945312 103.375 -169.59375 L 108.859375 -169.59375 C 108.066406 -160.382812 107.671875 -144.1875 107.671875 -121 L 102.1875 -121 C 101.238281 -133.863281 97.546875 -144.703125 91.109375 -153.515625 C 84.679688 -162.328125 75.351562 -166.734375 63.125 -166.734375 C 54.550781 -166.734375 47.5625 -164.15625 42.15625 -159 C 36.757812 -153.84375 34.0625 -147.210938 34.0625 -139.109375 C 34.0625 -133.078125 35.453125 -127.835938 38.234375 -123.390625 C 41.015625 -118.941406 44.546875 -115.128906 48.828125 -111.953125 C 53.117188 -108.773438 59.234375 -104.726562 67.171875 -99.8125 L 74.078125 -95.515625 C 84.085938 -89.328125 91.988281 -83.890625 97.78125 -79.203125 C 103.582031 -74.515625 108.226562 -69.15625 111.71875 -63.125 C 115.207031 -57.09375 116.953125 -50.023438 116.953125 -41.921875 C 116.953125 -27.472656 112.1875 -16.316406 102.65625 -8.453125 C 93.132812 -0.597656 81.066406 3.328125 66.453125 3.328125 C 58.835938 3.328125 52.609375 2.535156 47.765625 0.953125 C 42.921875 -0.628906 38.273438 -2.773438 33.828125 -5.484375 C 30.328125 -7.703125 27.625 -8.8125 25.71875 -8.8125 C 24.289062 -8.8125 23.179688 -7.976562 22.390625 -6.3125 C 21.597656 -4.644531 20.960938 -1.984375 20.484375 1.671875 L 15 1.671875 C 15.632812 -7.066406 15.953125 -26.125 15.953125 -55.5 L 21.4375 -55.5 C 22.550781 -39.457031 26.519531 -26.429688 33.34375 -16.421875 C 40.175781 -6.421875 50.660156 -1.421875 64.796875 -1.421875 C 73.367188 -1.421875 80.671875 -4.082031 86.703125 -9.40625 C 92.734375 -14.726562 95.75 -22.628906 95.75 -33.109375 C 95.75 -42.003906 92.769531 -49.546875 86.8125 -55.734375 C 80.863281 -61.929688 71.457031 -68.921875 58.59375 -76.703125 C 49.226562 -82.421875 41.644531 -87.5 35.84375 -91.9375 C 30.050781 -96.382812 25.328125 -101.742188 21.671875 -108.015625 C 18.023438 -114.296875 16.203125 -121.644531 16.203125 -130.0625 C 16.203125 -143.394531 20.488281 -153.59375 29.0625 -160.65625 C 37.632812 -167.726562 48.273438 -171.265625 60.984375 -171.265625 Z M 60.984375 -171.265625 "/></g></g></g><g fill="#ffffff" fill-opacity="1"><g transform="translate(75.692599, 209.342782)"><g><path d="M 132.296875 -145.890625 C 131.328125 -132.835938 130.84375 -121.160156 130.84375 -110.859375 C 130.84375 -104.398438 131.050781 -99.179688 131.46875 -95.203125 L 126.734375 -95.203125 C 123.429688 -112.097656 118.929688 -123.976562 113.234375 -130.84375 C 107.535156 -137.71875 99.738281 -141.15625 89.84375 -141.15625 L 85.109375 -141.15625 L 85.109375 -23.484375 C 85.109375 -17.722656 85.691406 -13.535156 86.859375 -10.921875 C 88.023438 -8.304688 90.082031 -6.550781 93.03125 -5.65625 C 95.988281 -4.769531 100.695312 -4.257812 107.15625 -4.125 L 107.15625 0 C 89.84375 -0.414062 76.789062 -0.625 68 -0.625 C 59.34375 -0.625 46.773438 -0.414062 30.296875 0 L 30.296875 -4.125 C 36.742188 -4.257812 41.445312 -4.769531 44.40625 -5.65625 C 47.363281 -6.550781 49.425781 -8.304688 50.59375 -10.921875 C 51.757812 -13.535156 52.34375 -17.722656 52.34375 -23.484375 L 52.34375 -141.15625 L 47.8125 -141.15625 C 41.21875 -141.15625 35.617188 -139.710938 31.015625 -136.828125 C 26.410156 -133.941406 22.457031 -129.164062 19.15625 -122.5 C 15.863281 -115.84375 13.050781 -106.742188 10.71875 -95.203125 L 5.96875 -95.203125 C 6.382812 -99.179688 6.59375 -104.398438 6.59375 -110.859375 C 6.59375 -121.160156 6.113281 -132.835938 5.15625 -145.890625 C 17.65625 -145.484375 38.878906 -145.28125 68.828125 -145.28125 C 98.773438 -145.28125 119.929688 -145.484375 132.296875 -145.890625 Z M 132.296875 -145.890625 "/></g></g></g><g fill="#000000" fill-opacity="1"><g transform="translate(69.268789, 208.893586)"><g><path d="M 132.296875 -145.890625 C 131.328125 -132.835938 130.84375 -121.160156 130.84375 -110.859375 C 130.84375 -104.398438 131.050781 -99.179688 131.46875 -95.203125 L 126.734375 -95.203125 C 123.429688 -112.097656 118.929688 -123.976562 113.234375 -130.84375 C 107.535156 -137.71875 99.738281 -141.15625 89.84375 -141.15625 L 85.109375 -141.15625 L 85.109375 -23.484375 C 85.109375 -17.722656 85.691406 -13.535156 86.859375 -10.921875 C 88.023438 -8.304688 90.082031 -6.550781 93.03125 -5.65625 C 95.988281 -4.769531 100.695312 -4.257812 107.15625 -4.125 L 107.15625 0 C 89.84375 -0.414062 76.789062 -0.625 68 -0.625 C 59.34375 -0.625 46.773438 -0.414062 30.296875 0 L 30.296875 -4.125 C 36.742188 -4.257812 41.445312 -4.769531 44.40625 -5.65625 C 47.363281 -6.550781 49.425781 -8.304688 50.59375 -10.921875 C 51.757812 -13.535156 52.34375 -17.722656 52.34375 -23.484375 L 52.34375 -141.15625 L 47.8125 -141.15625 C 41.21875 -141.15625 35.617188 -139.710938 31.015625 -136.828125 C 26.410156 -133.941406 22.457031 -129.164062 19.15625 -122.5 C 15.863281 -115.84375 13.050781 -106.742188 10.71875 -95.203125 L 5.96875 -95.203125 C 6.382812 -99.179688 6.59375 -104.398438 6.59375 -110.859375 C 6.59375 -121.160156 6.113281 -132.835938 5.15625 -145.890625 C 17.65625 -145.484375 38.878906 -145.28125 68.828125 -145.28125 C 98.773438 -145.28125 119.929688 -145.484375 132.296875 -145.890625 Z M 132.296875 -145.890625 "/></g></g></g><g fill="#000000" fill-opacity="1"><g transform="translate(139.330236, 320.685272)"><g><path d="M 6.953125 -4.015625 L 7.765625 -4.015625 L 7.765625 -0.953125 C 7.390625 -0.617188 6.945312 -0.363281 6.4375 -0.1875 C 5.925781 -0.0195312 5.390625 0.0625 4.828125 0.0625 C 4.023438 0.0625 3.300781 -0.109375 2.65625 -0.453125 C 2.007812 -0.804688 1.503906 -1.296875 1.140625 -1.921875 C 0.773438 -2.546875 0.59375 -3.242188 0.59375 -4.015625 C 0.59375 -4.785156 0.773438 -5.476562 1.140625 -6.09375 C 1.503906 -6.71875 2.007812 -7.203125 2.65625 -7.546875 C 3.300781 -7.898438 4.023438 -8.078125 4.828125 -8.078125 C 5.441406 -8.078125 6.003906 -7.976562 6.515625 -7.78125 C 7.023438 -7.59375 7.457031 -7.304688 7.8125 -6.921875 L 7.28125 -6.390625 C 6.644531 -7.015625 5.84375 -7.328125 4.875 -7.328125 C 4.21875 -7.328125 3.628906 -7.179688 3.109375 -6.890625 C 2.585938 -6.609375 2.175781 -6.210938 1.875 -5.703125 C 1.582031 -5.203125 1.4375 -4.640625 1.4375 -4.015625 C 1.4375 -3.378906 1.582031 -2.8125 1.875 -2.3125 C 2.175781 -1.8125 2.582031 -1.414062 3.09375 -1.125 C 3.613281 -0.832031 4.203125 -0.6875 4.859375 -0.6875 C 5.679688 -0.6875 6.378906 -0.894531 6.953125 -1.3125 Z M 6.953125 -4.015625 "/></g></g></g><g fill="#000000" fill-opacity="1"><g transform="translate(153.257831, 320.685272)"><g><path d="M 1.3125 -8.015625 L 2.15625 -8.015625 L 2.15625 0 L 1.3125 0 Z M 1.3125 -8.015625 "/></g></g></g><g fill="#000000" fill-opacity="1"><g transform="translate(161.792823, 320.685272)"><g><path d="M 2.15625 -7.28125 L 2.15625 -4.140625 L 6.296875 -4.140625 L 6.296875 -3.40625 L 2.15625 -3.40625 L 2.15625 0 L 1.3125 0 L 1.3125 -8.015625 L 6.796875 -8.015625 L 6.796875 -7.28125 Z M 2.15625 -7.28125 "/></g></g></g><g fill="#000000" fill-opacity="1"><g transform="translate(174.117525, 320.685272)"><g><path d="M 4.78125 0.0625 C 3.988281 0.0625 3.273438 -0.109375 2.640625 -0.453125 C 2.003906 -0.804688 1.503906 -1.296875 1.140625 -1.921875 C 0.773438 -2.546875 0.59375 -3.242188 0.59375 -4.015625 C 0.59375 -4.785156 0.773438 -5.476562 1.140625 -6.09375 C 1.503906 -6.71875 2.003906 -7.203125 2.640625 -7.546875 C 3.285156 -7.898438 4.003906 -8.078125 4.796875 -8.078125 C 5.390625 -8.078125 5.9375 -7.976562 6.4375 -7.78125 C 6.945312 -7.582031 7.378906 -7.296875 7.734375 -6.921875 L 7.1875 -6.375 C 6.5625 -7.007812 5.773438 -7.328125 4.828125 -7.328125 C 4.191406 -7.328125 3.613281 -7.179688 3.09375 -6.890625 C 2.570312 -6.597656 2.164062 -6.203125 1.875 -5.703125 C 1.582031 -5.203125 1.4375 -4.640625 1.4375 -4.015625 C 1.4375 -3.378906 1.582031 -2.8125 1.875 -2.3125 C 2.164062 -1.8125 2.570312 -1.414062 3.09375 -1.125 C 3.613281 -0.832031 4.191406 -0.6875 4.828125 -0.6875 C 5.785156 -0.6875 6.570312 -1.007812 7.1875 -1.65625 L 7.734375 -1.109375 C 7.378906 -0.722656 6.945312 -0.429688 6.4375 -0.234375 C 5.9375 -0.0351562 5.382812 0.0625 4.78125 0.0625 Z M 4.78125 0.0625 "/></g></g></g><g fill="#000000" fill-opacity="1"><g transform="translate(187.426866, 320.685272)"><g><path d="M 6.328125 -2.140625 L 1.859375 -2.140625 L 0.90625 0 L 0.015625 0 L 3.6875 -8.015625 L 4.53125 -8.015625 L 8.1875 0 L 7.296875 0 Z M 6.03125 -2.828125 L 4.09375 -7.140625 L 2.171875 -2.828125 Z M 6.03125 -2.828125 "/></g></g></g><g fill="#000000" fill-opacity="1"><g transform="translate(200.713307, 320.685272)"><g><path d="M 6.78125 0 L 4.953125 -2.578125 C 4.742188 -2.554688 4.53125 -2.546875 4.3125 -2.546875 L 2.15625 -2.546875 L 2.15625 0 L 1.3125 0 L 1.3125 -8.015625 L 4.3125 -8.015625 C 5.332031 -8.015625 6.128906 -7.769531 6.703125 -7.28125 C 7.285156 -6.789062 7.578125 -6.117188 7.578125 -5.265625 C 7.578125 -4.640625 7.414062 -4.109375 7.09375 -3.671875 C 6.78125 -3.242188 6.332031 -2.9375 5.75 -2.75 L 7.703125 0 Z M 4.28125 -3.265625 C 5.070312 -3.265625 5.675781 -3.4375 6.09375 -3.78125 C 6.519531 -4.132812 6.734375 -4.628906 6.734375 -5.265625 C 6.734375 -5.910156 6.519531 -6.40625 6.09375 -6.75 C 5.675781 -7.101562 5.070312 -7.28125 4.28125 -7.28125 L 2.15625 -7.28125 L 2.15625 -3.265625 Z M 4.28125 -3.265625 "/></g></g></g><g fill="#000000" fill-opacity="1"><g transform="translate(214.068447, 320.685272)"><g><path d="M 1.3125 -8.015625 L 4.5625 -8.015625 C 5.414062 -8.015625 6.164062 -7.84375 6.8125 -7.5 C 7.457031 -7.164062 7.957031 -6.691406 8.3125 -6.078125 C 8.675781 -5.472656 8.859375 -4.785156 8.859375 -4.015625 C 8.859375 -3.234375 8.675781 -2.535156 8.3125 -1.921875 C 7.957031 -1.316406 7.457031 -0.84375 6.8125 -0.5 C 6.164062 -0.164062 5.414062 0 4.5625 0 L 1.3125 0 Z M 4.53125 -0.734375 C 5.226562 -0.734375 5.835938 -0.867188 6.359375 -1.140625 C 6.890625 -1.421875 7.300781 -1.804688 7.59375 -2.296875 C 7.882812 -2.796875 8.03125 -3.367188 8.03125 -4.015625 C 8.03125 -4.648438 7.882812 -5.210938 7.59375 -5.703125 C 7.300781 -6.203125 6.890625 -6.585938 6.359375 -6.859375 C 5.835938 -7.140625 5.226562 -7.28125 4.53125 -7.28125 L 2.15625 -7.28125 L 2.15625 -0.734375 Z M 4.53125 -0.734375 "/></g></g></g><g fill="#000000" fill-opacity="1"><g transform="translate(228.602854, 320.685272)"><g><path d="M 3.515625 0.0625 C 2.921875 0.0625 2.347656 -0.03125 1.796875 -0.21875 C 1.253906 -0.40625 0.832031 -0.65625 0.53125 -0.96875 L 0.875 -1.625 C 1.164062 -1.332031 1.550781 -1.097656 2.03125 -0.921875 C 2.507812 -0.742188 3.003906 -0.65625 3.515625 -0.65625 C 4.234375 -0.65625 4.769531 -0.785156 5.125 -1.046875 C 5.488281 -1.304688 5.671875 -1.648438 5.671875 -2.078125 C 5.671875 -2.390625 5.570312 -2.640625 5.375 -2.828125 C 5.175781 -3.023438 4.9375 -3.175781 4.65625 -3.28125 C 4.375 -3.382812 3.984375 -3.5 3.484375 -3.625 C 2.878906 -3.769531 2.394531 -3.910156 2.03125 -4.046875 C 1.675781 -4.191406 1.367188 -4.410156 1.109375 -4.703125 C 0.859375 -4.992188 0.734375 -5.390625 0.734375 -5.890625 C 0.734375 -6.296875 0.835938 -6.660156 1.046875 -6.984375 C 1.265625 -7.316406 1.59375 -7.582031 2.03125 -7.78125 C 2.476562 -7.976562 3.03125 -8.078125 3.6875 -8.078125 C 4.144531 -8.078125 4.59375 -8.015625 5.03125 -7.890625 C 5.46875 -7.765625 5.847656 -7.59375 6.171875 -7.375 L 5.890625 -6.703125 C 5.554688 -6.921875 5.195312 -7.082031 4.8125 -7.1875 C 4.425781 -7.300781 4.050781 -7.359375 3.6875 -7.359375 C 2.988281 -7.359375 2.457031 -7.222656 2.09375 -6.953125 C 1.738281 -6.679688 1.5625 -6.332031 1.5625 -5.90625 C 1.5625 -5.582031 1.660156 -5.320312 1.859375 -5.125 C 2.054688 -4.9375 2.300781 -4.789062 2.59375 -4.6875 C 2.882812 -4.582031 3.28125 -4.472656 3.78125 -4.359375 C 4.363281 -4.210938 4.835938 -4.066406 5.203125 -3.921875 C 5.566406 -3.773438 5.875 -3.5625 6.125 -3.28125 C 6.375 -3 6.5 -2.613281 6.5 -2.125 C 6.5 -1.71875 6.390625 -1.347656 6.171875 -1.015625 C 5.960938 -0.679688 5.628906 -0.414062 5.171875 -0.21875 C 4.722656 -0.03125 4.171875 0.0625 3.515625 0.0625 Z M 3.515625 0.0625 "/></g></g></g><g fill="#000000" fill-opacity="1"><g transform="translate(120.040975, 298.7875)"><g><path d="M 15.71875 -18.796875 C 15.59375 -17.535156 15.53125 -16.398438 15.53125 -15.390625 C 15.53125 -14.503906 15.554688 -13.78125 15.609375 -13.21875 L 15 -13.21875 C 14.851562 -14.582031 14.675781 -15.59375 14.46875 -16.25 C 14.257812 -16.914062 13.890625 -17.40625 13.359375 -17.71875 C 12.828125 -18.03125 12.007812 -18.1875 10.90625 -18.1875 L 9.484375 -18.1875 L 9.484375 -3.078125 C 9.484375 -2.335938 9.550781 -1.796875 9.6875 -1.453125 C 9.832031 -1.117188 10.082031 -0.890625 10.4375 -0.765625 C 10.789062 -0.640625 11.363281 -0.5625 12.15625 -0.53125 L 12.15625 0 C 11.238281 -0.0507812 9.9375 -0.078125 8.25 -0.078125 C 6.476562 -0.078125 5.171875 -0.0507812 4.328125 0 L 4.328125 -0.53125 C 5.117188 -0.5625 5.691406 -0.640625 6.046875 -0.765625 C 6.398438 -0.890625 6.648438 -1.117188 6.796875 -1.453125 C 6.941406 -1.796875 7.015625 -2.335938 7.015625 -3.078125 L 7.015625 -18.1875 L 5.578125 -18.1875 C 4.472656 -18.1875 3.65625 -18.03125 3.125 -17.71875 C 2.601562 -17.40625 2.234375 -16.914062 2.015625 -16.25 C 1.804688 -15.59375 1.628906 -14.582031 1.484375 -13.21875 L 0.875 -13.21875 C 0.925781 -13.78125 0.953125 -14.503906 0.953125 -15.390625 C 0.953125 -16.398438 0.890625 -17.535156 0.765625 -18.796875 C 2.234375 -18.742188 4.726562 -18.71875 8.25 -18.71875 C 11.757812 -18.71875 14.25 -18.742188 15.71875 -18.796875 Z M 15.71875 -18.796875 "/></g></g></g><g fill="#000000" fill-opacity="1"><g transform="translate(136.524151, 298.7875)"><g><path d="M 15.046875 -2.234375 C 15.472656 -1.128906 16.085938 -0.5625 16.890625 -0.53125 L 16.890625 0 C 16.179688 -0.0507812 15.234375 -0.078125 14.046875 -0.078125 C 12.523438 -0.078125 11.390625 -0.0507812 10.640625 0 L 10.640625 -0.53125 C 11.316406 -0.5625 11.800781 -0.644531 12.09375 -0.78125 C 12.382812 -0.914062 12.53125 -1.160156 12.53125 -1.515625 C 12.53125 -1.816406 12.425781 -2.234375 12.21875 -2.765625 L 10.59375 -7.109375 L 4.171875 -7.109375 L 3.078125 -4.296875 C 2.722656 -3.335938 2.546875 -2.613281 2.546875 -2.125 C 2.546875 -1.570312 2.734375 -1.171875 3.109375 -0.921875 C 3.492188 -0.679688 4.078125 -0.550781 4.859375 -0.53125 L 4.859375 0 C 3.847656 -0.0507812 2.832031 -0.078125 1.8125 -0.078125 C 1.007812 -0.078125 0.34375 -0.0507812 -0.1875 0 L -0.1875 -0.53125 C 0.695312 -0.738281 1.394531 -1.507812 1.90625 -2.84375 L 8.15625 -18.921875 L 8.578125 -18.921875 Z M 10.375 -7.640625 L 7.40625 -15.578125 L 4.375 -7.640625 Z M 10.375 -7.640625 "/></g></g></g><g fill="#000000" fill-opacity="1"><g transform="translate(153.246211, 298.7875)"><g><path d="M 15.71875 -18.796875 C 15.59375 -17.535156 15.53125 -16.398438 15.53125 -15.390625 C 15.53125 -14.503906 15.554688 -13.78125 15.609375 -13.21875 L 15 -13.21875 C 14.851562 -14.582031 14.675781 -15.59375 14.46875 -16.25 C 14.257812 -16.914062 13.890625 -17.40625 13.359375 -17.71875 C 12.828125 -18.03125 12.007812 -18.1875 10.90625 -18.1875 L 9.484375 -18.1875 L 9.484375 -3.078125 C 9.484375 -2.335938 9.550781 -1.796875 9.6875 -1.453125 C 9.832031 -1.117188 10.082031 -0.890625 10.4375 -0.765625 C 10.789062 -0.640625 11.363281 -0.5625 12.15625 -0.53125 L 12.15625 0 C 11.238281 -0.0507812 9.9375 -0.078125 8.25 -0.078125 C 6.476562 -0.078125 5.171875 -0.0507812 4.328125 0 L 4.328125 -0.53125 C 5.117188 -0.5625 5.691406 -0.640625 6.046875 -0.765625 C 6.398438 -0.890625 6.648438 -1.117188 6.796875 -1.453125 C 6.941406 -1.796875 7.015625 -2.335938 7.015625 -3.078125 L 7.015625 -18.1875 L 5.578125 -18.1875 C 4.472656 -18.1875 3.65625 -18.03125 3.125 -17.71875 C 2.601562 -17.40625 2.234375 -16.914062 2.015625 -16.25 C 1.804688 -15.59375 1.628906 -14.582031 1.484375 -13.21875 L 0.875 -13.21875 C 0.925781 -13.78125 0.953125 -14.503906 0.953125 -15.390625 C 0.953125 -16.398438 0.890625 -17.535156 0.765625 -18.796875 C 2.234375 -18.742188 4.726562 -18.71875 8.25 -18.71875 C 11.757812 -18.71875 14.25 -18.742188 15.71875 -18.796875 Z M 15.71875 -18.796875 "/></g></g></g><g fill="#000000" fill-opacity="1"><g transform="translate(169.729388, 298.7875)"><g><path d="M 7.890625 -18.265625 C 7.242188 -18.234375 6.773438 -18.160156 6.484375 -18.046875 C 6.191406 -17.941406 5.992188 -17.738281 5.890625 -17.4375 C 5.785156 -17.132812 5.734375 -16.648438 5.734375 -15.984375 L 5.734375 -2.8125 C 5.734375 -2.144531 5.785156 -1.660156 5.890625 -1.359375 C 5.992188 -1.054688 6.191406 -0.847656 6.484375 -0.734375 C 6.773438 -0.628906 7.242188 -0.5625 7.890625 -0.53125 L 7.890625 0 C 7.066406 -0.0507812 5.941406 -0.078125 4.515625 -0.078125 C 2.992188 -0.078125 1.859375 -0.0507812 1.109375 0 L 1.109375 -0.53125 C 1.753906 -0.5625 2.222656 -0.628906 2.515625 -0.734375 C 2.804688 -0.847656 3.003906 -1.054688 3.109375 -1.359375 C 3.210938 -1.660156 3.265625 -2.144531 3.265625 -2.8125 L 3.265625 -15.984375 C 3.265625 -16.648438 3.210938 -17.132812 3.109375 -17.4375 C 3.003906 -17.738281 2.804688 -17.941406 2.515625 -18.046875 C 2.222656 -18.160156 1.753906 -18.234375 1.109375 -18.265625 L 1.109375 -18.796875 C 1.859375 -18.742188 2.992188 -18.71875 4.515625 -18.71875 C 5.929688 -18.71875 7.054688 -18.742188 7.890625 -18.796875 Z M 7.890625 -18.265625 "/></g></g></g><g fill="#000000" fill-opacity="1"><g transform="translate(178.727453, 298.7875)"><g/></g></g><g fill="#000000" fill-opacity="1"><g transform="translate(185.336645, 298.7875)"><g><path d="M 6.796875 -19.09375 C 7.578125 -19.09375 8.191406 -19.003906 8.640625 -18.828125 C 9.085938 -18.660156 9.550781 -18.421875 10.03125 -18.109375 C 10.425781 -17.859375 10.726562 -17.734375 10.9375 -17.734375 C 11.09375 -17.734375 11.210938 -17.828125 11.296875 -18.015625 C 11.390625 -18.203125 11.460938 -18.5 11.515625 -18.90625 L 12.125 -18.90625 C 12.039062 -17.875 12 -16.066406 12 -13.484375 L 11.390625 -13.484375 C 11.285156 -14.921875 10.875 -16.128906 10.15625 -17.109375 C 9.4375 -18.085938 8.394531 -18.578125 7.03125 -18.578125 C 6.070312 -18.578125 5.289062 -18.289062 4.6875 -17.71875 C 4.09375 -17.144531 3.796875 -16.40625 3.796875 -15.5 C 3.796875 -14.832031 3.945312 -14.25 4.25 -13.75 C 4.5625 -13.257812 4.957031 -12.835938 5.4375 -12.484375 C 5.914062 -12.128906 6.597656 -11.675781 7.484375 -11.125 L 8.25 -10.640625 C 9.363281 -9.953125 10.242188 -9.347656 10.890625 -8.828125 C 11.535156 -8.304688 12.050781 -7.707031 12.4375 -7.03125 C 12.832031 -6.363281 13.03125 -5.578125 13.03125 -4.671875 C 13.03125 -3.054688 12.5 -1.8125 11.4375 -0.9375 C 10.375 -0.0625 9.03125 0.375 7.40625 0.375 C 6.550781 0.375 5.851562 0.285156 5.3125 0.109375 C 4.78125 -0.0664062 4.265625 -0.304688 3.765625 -0.609375 C 3.378906 -0.859375 3.078125 -0.984375 2.859375 -0.984375 C 2.703125 -0.984375 2.578125 -0.890625 2.484375 -0.703125 C 2.398438 -0.515625 2.332031 -0.21875 2.28125 0.1875 L 1.671875 0.1875 C 1.742188 -0.789062 1.78125 -2.914062 1.78125 -6.1875 L 2.390625 -6.1875 C 2.515625 -4.394531 2.957031 -2.941406 3.71875 -1.828125 C 4.476562 -0.710938 5.644531 -0.15625 7.21875 -0.15625 C 8.175781 -0.15625 8.988281 -0.453125 9.65625 -1.046875 C 10.332031 -1.640625 10.671875 -2.519531 10.671875 -3.6875 C 10.671875 -4.675781 10.335938 -5.515625 9.671875 -6.203125 C 9.015625 -6.898438 7.96875 -7.679688 6.53125 -8.546875 C 5.488281 -9.179688 4.644531 -9.742188 4 -10.234375 C 3.351562 -10.734375 2.828125 -11.332031 2.421875 -12.03125 C 2.015625 -12.738281 1.8125 -13.5625 1.8125 -14.5 C 1.8125 -15.976562 2.285156 -17.113281 3.234375 -17.90625 C 4.191406 -18.695312 5.378906 -19.09375 6.796875 -19.09375 Z M 6.796875 -19.09375 "/></g></g></g><g fill="#000000" fill-opacity="1"><g transform="translate(199.669842, 298.7875)"><g><path d="M 18.984375 -18.265625 C 18.347656 -18.234375 17.882812 -18.160156 17.59375 -18.046875 C 17.300781 -17.941406 17.097656 -17.738281 16.984375 -17.4375 C 16.878906 -17.132812 16.828125 -16.648438 16.828125 -15.984375 L 16.828125 -2.8125 C 16.828125 -2.144531 16.878906 -1.660156 16.984375 -1.359375 C 17.097656 -1.054688 17.300781 -0.847656 17.59375 -0.734375 C 17.882812 -0.628906 18.347656 -0.5625 18.984375 -0.53125 L 18.984375 0 C 18.234375 -0.0507812 17.097656 -0.078125 15.578125 -0.078125 C 14.148438 -0.078125 13.03125 -0.0507812 12.21875 0 L 12.21875 -0.53125 C 12.851562 -0.5625 13.316406 -0.628906 13.609375 -0.734375 C 13.898438 -0.847656 14.097656 -1.054688 14.203125 -1.359375 C 14.304688 -1.660156 14.359375 -2.144531 14.359375 -2.8125 L 14.359375 -9.1875 L 5.734375 -9.1875 L 5.734375 -2.8125 C 5.734375 -2.144531 5.785156 -1.660156 5.890625 -1.359375 C 5.992188 -1.054688 6.191406 -0.847656 6.484375 -0.734375 C 6.773438 -0.628906 7.242188 -0.5625 7.890625 -0.53125 L 7.890625 0 C 7.066406 -0.0507812 5.941406 -0.078125 4.515625 -0.078125 C 2.992188 -0.078125 1.859375 -0.0507812 1.109375 0 L 1.109375 -0.53125 C 1.753906 -0.5625 2.222656 -0.628906 2.515625 -0.734375 C 2.804688 -0.847656 3.003906 -1.054688 3.109375 -1.359375 C 3.210938 -1.660156 3.265625 -2.144531 3.265625 -2.8125 L 3.265625 -15.984375 C 3.265625 -16.648438 3.210938 -17.132812 3.109375 -17.4375 C 3.003906 -17.738281 2.804688 -17.941406 2.515625 -18.046875 C 2.222656 -18.160156 1.753906 -18.234375 1.109375 -18.265625 L 1.109375 -18.796875 C 1.859375 -18.742188 2.992188 -18.71875 4.515625 -18.71875 C 5.929688 -18.71875 7.054688 -18.742188 7.890625 -18.796875 L 7.890625 -18.265625 C 7.242188 -18.234375 6.773438 -18.160156 6.484375 -18.046875 C 6.191406 -17.941406 5.992188 -17.738281 5.890625 -17.4375 C 5.785156 -17.132812 5.734375 -16.648438 5.734375 -15.984375 L 5.734375 -9.71875 L 14.359375 -9.71875 L 14.359375 -15.984375 C 14.359375 -16.648438 14.304688 -17.132812 14.203125 -17.4375 C 14.097656 -17.738281 13.898438 -17.941406 13.609375 -18.046875 C 13.316406 -18.160156 12.851562 -18.234375 12.21875 -18.265625 L 12.21875 -18.796875 C 13.03125 -18.742188 14.148438 -18.71875 15.578125 -18.71875 C 17.097656 -18.71875 18.234375 -18.742188 18.984375 -18.796875 Z M 18.984375 -18.265625 "/></g></g></g><g fill="#000000" fill-opacity="1"><g transform="translate(219.762862, 298.7875)"><g><path d="M 9.84375 -19.171875 C 11.53125 -19.171875 13.003906 -18.789062 14.265625 -18.03125 C 15.535156 -17.269531 16.519531 -16.164062 17.21875 -14.71875 C 17.914062 -13.28125 18.265625 -11.5625 18.265625 -9.5625 C 18.265625 -7.613281 17.90625 -5.882812 17.1875 -4.375 C 16.46875 -2.875 15.46875 -1.707031 14.1875 -0.875 C 12.90625 -0.0390625 11.453125 0.375 9.828125 0.375 C 8.140625 0.375 6.660156 -0.00390625 5.390625 -0.765625 C 4.128906 -1.523438 3.148438 -2.625 2.453125 -4.0625 C 1.753906 -5.507812 1.40625 -7.234375 1.40625 -9.234375 C 1.40625 -11.179688 1.765625 -12.90625 2.484375 -14.40625 C 3.203125 -15.914062 4.203125 -17.085938 5.484375 -17.921875 C 6.765625 -18.753906 8.21875 -19.171875 9.84375 -19.171875 Z M 9.75 -18.6875 C 8.613281 -18.6875 7.613281 -18.289062 6.75 -17.5 C 5.894531 -16.71875 5.234375 -15.617188 4.765625 -14.203125 C 4.296875 -12.785156 4.0625 -11.164062 4.0625 -9.34375 C 4.0625 -7.5 4.320312 -5.878906 4.84375 -4.484375 C 5.363281 -3.085938 6.066406 -2.007812 6.953125 -1.25 C 7.835938 -0.488281 8.828125 -0.109375 9.921875 -0.109375 C 11.054688 -0.109375 12.050781 -0.5 12.90625 -1.28125 C 13.769531 -2.070312 14.4375 -3.175781 14.90625 -4.59375 C 15.375 -6.007812 15.609375 -7.628906 15.609375 -9.453125 C 15.609375 -11.296875 15.347656 -12.914062 14.828125 -14.3125 C 14.304688 -15.707031 13.601562 -16.785156 12.71875 -17.546875 C 11.832031 -18.304688 10.84375 -18.6875 9.75 -18.6875 Z M 9.75 -18.6875 "/></g></g></g><g fill="#000000" fill-opacity="1"><g transform="translate(239.431192, 298.7875)"><g><path d="M 5.734375 -7.59375 L 5.734375 -2.8125 C 5.734375 -2.144531 5.800781 -1.660156 5.9375 -1.359375 C 6.082031 -1.054688 6.332031 -0.847656 6.6875 -0.734375 C 7.039062 -0.628906 7.617188 -0.5625 8.421875 -0.53125 L 8.421875 0 C 7.492188 -0.0507812 6.191406 -0.078125 4.515625 -0.078125 C 2.992188 -0.078125 1.859375 -0.0507812 1.109375 0 L 1.109375 -0.53125 C 1.753906 -0.5625 2.222656 -0.628906 2.515625 -0.734375 C 2.804688 -0.847656 3.003906 -1.054688 3.109375 -1.359375 C 3.210938 -1.660156 3.265625 -2.144531 3.265625 -2.8125 L 3.265625 -15.984375 C 3.265625 -16.648438 3.210938 -17.132812 3.109375 -17.4375 C 3.003906 -17.738281 2.804688 -17.941406 2.515625 -18.046875 C 2.222656 -18.160156 1.753906 -18.234375 1.109375 -18.265625 L 1.109375 -18.796875 C 1.859375 -18.742188 2.941406 -18.71875 4.359375 -18.71875 L 7.21875 -18.734375 C 7.550781 -18.753906 7.929688 -18.765625 8.359375 -18.765625 C 10.429688 -18.765625 12.015625 -18.289062 13.109375 -17.34375 C 14.210938 -16.394531 14.765625 -15.125 14.765625 -13.53125 C 14.765625 -12.5625 14.546875 -11.628906 14.109375 -10.734375 C 13.671875 -9.835938 12.9375 -9.085938 11.90625 -8.484375 C 10.875 -7.890625 9.5 -7.59375 7.78125 -7.59375 Z M 7.703125 -18.265625 C 7.148438 -18.265625 6.734375 -18.203125 6.453125 -18.078125 C 6.179688 -17.953125 5.992188 -17.726562 5.890625 -17.40625 C 5.785156 -17.09375 5.734375 -16.617188 5.734375 -15.984375 L 5.734375 -8.125 L 7.515625 -8.125 C 9.242188 -8.125 10.441406 -8.585938 11.109375 -9.515625 C 11.773438 -10.441406 12.109375 -11.6875 12.109375 -13.25 C 12.109375 -14.96875 11.765625 -16.234375 11.078125 -17.046875 C 10.398438 -17.859375 9.273438 -18.265625 7.703125 -18.265625 Z M 7.703125 -18.265625 "/></g></g></g></svg>
